# xmcd
#
# Track frame offsets: 
#        150
#        17873
#        35979
#        46240
#        59047
#        76567
#        90270
#        106026
#        118392
#        134240
#        147147
#        163060
#        179333
#        191020
#        208045
#        219269
#        234770
#        248232
#        266632
#        278181
#        293032
#        306222
#
# Disc length: 4307 seconds
#
# Revision: 1
# Processed by: cddbd v1.5.2PL0 Copyright (c) Steve Scherf et al.
# Submitted via: ExactAudioCopy v1.3
#
DISCID=4510d116
DTITLE=Frankie Laine - Somethin' Old, Somethin' New
DYEAR=1997
DGENRE=Country
TTITLE0=Nobody But You
TTITLE1=Don't Cry, Cry Baby
TTITLE2=Send In The Clowns
TTITLE3=S'Posin
TTITLE4=Evergreen
TTITLE5=Lady Be Good
TTITLE6=Fever
TTITLE7=Roses Of Picardy
TTITLE8=Rose Ellen
TTITLE9=Sometimes I'm Happy
TTITLE10=Fallen Angel
TTITLE11=Old Enough (To Be Your Father)
TTITLE12=It Ain't Gonna Be Like That
TTITLE13=This Can't Be Love
TTITLE14=Someday Sweetheart
TTITLE15=I'd Do It Over Again
TTITLE16=You've Changed
TTITLE17=Makin' Whoopee
TTITLE18=Coquette
TTITLE19=Better To Have Loved
TTITLE20=Baby, Baby All The Time
TTITLE21=If I Never Sing Another Song
EXTD=
EXTT0=
EXTT1=
EXTT2=
EXTT3=
EXTT4=
EXTT5=
EXTT6=
EXTT7=
EXTT8=
EXTT9=
EXTT10=
EXTT11=
EXTT12=
EXTT13=
EXTT14=
EXTT15=
EXTT16=
EXTT17=
EXTT18=
EXTT19=
EXTT20=
EXTT21=
PLAYORDER=
